/* XPM */
static char * floor_xpm[] = {
"32 32 792 2",
"  	c #4B6A71",
". 	c #4B6C72",
"+ 	c #4B6B72",
"@ 	c #4B6870",
"# 	c #4A686F",
"$ 	c #48686D",
"% 	c #48696C",
"& 	c #48686B",
"* 	c #566F76",
"= 	c #5B767D",
"- 	c #44656A",
"; 	c #4C6B6E",
"> 	c #566A6C",
", 	c #53696D",
"' 	c #47676B",
") 	c #486567",
"! 	c #496667",
"~ 	c #486565",
"{ 	c #476564",
"] 	c #476563",
"^ 	c #466464",
"/ 	c #436262",
"( 	c #446262",
"_ 	c #43605E",
": 	c #436260",
"< 	c #436361",
"[ 	c #426461",
"} 	c #456665",
"| 	c #446765",
"1 	c #456864",
"2 	c #3F615D",
"3 	c #49605A",
"4 	c #4B6A72",
"5 	c #4A6870",
"6 	c #48696F",
"7 	c #47696E",
"8 	c #46676C",
"9 	c #5A7178",
"0 	c #647981",
"a 	c #46666C",
"b 	c #506C72",
"c 	c #4E6A6E",
"d 	c #4B696F",
"e 	c #4B6769",
"f 	c #526969",
"g 	c #486667",
"h 	c #466668",
"i 	c #456567",
"j 	c #426162",
"k 	c #45615E",
"l 	c #46625F",
"m 	c #446260",
"n 	c #446663",
"o 	c #476763",
"p 	c #406560",
"q 	c #406460",
"r 	c #446662",
"s 	c #4F605C",
"t 	c #4B6970",
"u 	c #486A72",
"v 	c #486A6F",
"w 	c #486A71",
"x 	c #4A6A6F",
"y 	c #476A70",
"z 	c #4D6C71",
"A 	c #4F6D73",
"B 	c #4A6B71",
"C 	c #506C71",
"D 	c #4D696B",
"E 	c #526C6A",
"F 	c #466466",
"G 	c #476769",
"H 	c #476566",
"I 	c #486463",
"J 	c #476461",
"K 	c #43625D",
"L 	c #43635E",
"M 	c #456561",
"N 	c #456763",
"O 	c #476A66",
"P 	c #446963",
"Q 	c #3F615F",
"R 	c #43615D",
"S 	c #4B6A6F",
"T 	c #486A70",
"U 	c #476A71",
"V 	c #4C6B71",
"W 	c #4A6B70",
"X 	c #496B71",
"Y 	c #526E72",
"Z 	c #4C6A6C",
"` 	c #4E6A6B",
" .	c #516A69",
"..	c #546A67",
"+.	c #4B6668",
"@.	c #466566",
"#.	c #486564",
"$.	c #46635F",
"%.	c #44625D",
"&.	c #45625D",
"*.	c #476460",
"=.	c #456966",
"-.	c #446864",
";.	c #416561",
">.	c #41605E",
",.	c #4B6971",
"'.	c #4A696F",
").	c #486971",
"!.	c #496A6F",
"~.	c #49696F",
"{.	c #4A6A70",
"].	c #4A696E",
"^.	c #49696E",
"/.	c #486A6E",
"(.	c #4B6A6C",
"_.	c #4C686A",
":.	c #566B65",
"<.	c #526865",
"[.	c #526763",
"}.	c #4A6564",
"|.	c #496560",
"1.	c #49635E",
"2.	c #45615B",
"3.	c #456058",
"4.	c #466059",
"5.	c #41615C",
"6.	c #3F625D",
"7.	c #3E625E",
"8.	c #416461",
"9.	c #456564",
"0.	c #48676F",
"a.	c #48676C",
"b.	c #4A6970",
"c.	c #4D696F",
"d.	c #4B696D",
"e.	c #48696B",
"f.	c #47696C",
"g.	c #476A6F",
"h.	c #47686A",
"i.	c #486666",
"j.	c #4B6564",
"k.	c #576A62",
"l.	c #4B6562",
"m.	c #4E6561",
"n.	c #4F645E",
"o.	c #4E635D",
"p.	c #4B655C",
"q.	c #49645C",
"r.	c #45605A",
"s.	c #41625C",
"t.	c #40625D",
"u.	c #3F635E",
"v.	c #446361",
"w.	c #4B6A70",
"x.	c #4A686D",
"y.	c #4B696E",
"z.	c #49686F",
"A.	c #47656D",
"B.	c #45656B",
"C.	c #47666C",
"D.	c #4A696D",
"E.	c #48676B",
"F.	c #44666B",
"G.	c #46676B",
"H.	c #486566",
"I.	c #466262",
"J.	c #4C6461",
"K.	c #52645E",
"L.	c #51635A",
"M.	c #50655C",
"N.	c #4B655D",
"O.	c #4A655D",
"P.	c #4A655F",
"Q.	c #48655F",
"R.	c #3E625D",
"S.	c #41645F",
"T.	c #446561",
"U.	c #476662",
"V.	c #48676E",
"W.	c #49686E",
"X.	c #47676D",
"Y.	c #45676F",
"Z.	c #47666B",
"`.	c #46656B",
" +	c #4A676C",
".+	c #48666D",
"++	c #49676B",
"@+	c #43666B",
"#+	c #486668",
"$+	c #4B6461",
"%+	c #54665D",
"&+	c #57685C",
"*+	c #52655B",
"=+	c #4F655D",
"-+	c #4A655E",
";+	c #476661",
">+	c #446460",
",+	c #476562",
"'+	c #44666C",
")+	c #46666A",
"!+	c #476569",
"~+	c #456467",
"{+	c #48666A",
"]+	c #466569",
"^+	c #466669",
"/+	c #44676D",
"(+	c #44676C",
"_+	c #47656B",
":+	c #40676E",
"<+	c #40696F",
"[+	c #41696F",
"}+	c #45676B",
"|+	c #476869",
"1+	c #506863",
"2+	c #58685A",
"3+	c #546558",
"4+	c #51655B",
"5+	c #4B655E",
"6+	c #4B6561",
"7+	c #476761",
"8+	c #446863",
"9+	c #436662",
"0+	c #446560",
"a+	c #466561",
"b+	c #4F686B",
"c+	c #446569",
"d+	c #476466",
"e+	c #486363",
"f+	c #486365",
"g+	c #496666",
"h+	c #4A6667",
"i+	c #44686B",
"j+	c #46676E",
"k+	c #426A70",
"l+	c #406A70",
"m+	c #416A71",
"n+	c #466A71",
"o+	c #48696D",
"p+	c #526765",
"q+	c #4F645C",
"r+	c #506357",
"s+	c #526457",
"t+	c #51655A",
"u+	c #4D655C",
"v+	c #4B655F",
"w+	c #426561",
"x+	c #426560",
"y+	c #416560",
"z+	c #476560",
"A+	c #456460",
"B+	c #45625F",
"C+	c #4B6465",
"D+	c #466365",
"E+	c #466465",
"F+	c #486562",
"G+	c #496464",
"H+	c #496564",
"I+	c #4E6566",
"J+	c #4C666A",
"K+	c #46686C",
"L+	c #466971",
"M+	c #436A72",
"N+	c #446B72",
"O+	c #466D73",
"P+	c #4A6D72",
"Q+	c #51655E",
"R+	c #52655A",
"S+	c #506457",
"T+	c #506558",
"U+	c #4D655B",
"V+	c #466560",
"W+	c #46655F",
"X+	c #4D655F",
"Y+	c #48635D",
"Z+	c #486362",
"`+	c #4A6464",
" @	c #4C6868",
".@	c #466564",
"+@	c #4A6561",
"@@	c #4C6561",
"#@	c #4F6561",
"$@	c #506565",
"%@	c #4F6566",
"&@	c #45696E",
"*@	c #466A70",
"=@	c #456A71",
"-@	c #4B6B6F",
";@	c #4E6B6F",
">@	c #516C6D",
",@	c #506761",
"'@	c #51665D",
")@	c #52685D",
"!@	c #52675D",
"~@	c #50665A",
"{@	c #506559",
"]@	c #4F6559",
"^@	c #4D645B",
"/@	c #44645D",
"(@	c #44645F",
"_@	c #45635E",
":@	c #47625E",
"<@	c #4D645E",
"[@	c #4B635C",
"}@	c #45615D",
"|@	c #486461",
"1@	c #466261",
"2@	c #466462",
"3@	c #496561",
"4@	c #4E6461",
"5@	c #506461",
"6@	c #516664",
"7@	c #4F6565",
"8@	c #4E6667",
"9@	c #4D6A6B",
"0@	c #4F6A6E",
"a@	c #506D70",
"b@	c #546C6C",
"c@	c #556B6B",
"d@	c #526762",
"e@	c #54685F",
"f@	c #55695E",
"g@	c #50655B",
"h@	c #4E6359",
"i@	c #4F655B",
"j@	c #4B645D",
"k@	c #45645D",
"l@	c #47645E",
"m@	c #48625D",
"n@	c #4B635D",
"o@	c #51655D",
"p@	c #4E6560",
"q@	c #496665",
"r@	c #4A6665",
"s@	c #486563",
"t@	c #4F6360",
"u@	c #4F635D",
"v@	c #506360",
"w@	c #526461",
"x@	c #526563",
"y@	c #556666",
"z@	c #596966",
"A@	c #586A68",
"B@	c #596C69",
"C@	c #546761",
"D@	c #52665D",
"E@	c #51655C",
"F@	c #50645B",
"G@	c #4D6157",
"H@	c #4F6258",
"I@	c #49635D",
"J@	c #46625D",
"K@	c #47625D",
"L@	c #46615C",
"M@	c #4B625D",
"N@	c #50625C",
"O@	c #50625B",
"P@	c #50655F",
"Q@	c #4C6765",
"R@	c #4A6766",
"S@	c #506A68",
"T@	c #4C6665",
"U@	c #4F635E",
"V@	c #50625D",
"W@	c #52635F",
"X@	c #56655F",
"Y@	c #5A665F",
"Z@	c #5E695F",
"`@	c #5C6862",
" #	c #576760",
".#	c #53665D",
"+#	c #54665C",
"@#	c #526459",
"##	c #51645D",
"$#	c #4C645E",
"%#	c #4B635E",
"&#	c #4C625C",
"*#	c #48605C",
"=#	c #49605C",
"-#	c #4B615C",
";#	c #4E605B",
">#	c #4C5C57",
",#	c #51615C",
"'#	c #52645D",
")#	c #4C6564",
"!#	c #4C6666",
"~#	c #4E6565",
"{#	c #506361",
"]#	c #4F625D",
"^#	c #51615D",
"/#	c #52635D",
"(#	c #55645E",
"_#	c #58665D",
":#	c #59665D",
"<#	c #57655D",
"[#	c #53655C",
"}#	c #56655C",
"|#	c #55655C",
"1#	c #54655D",
"2#	c #54665E",
"3#	c #576863",
"4#	c #53655D",
"5#	c #4E655F",
"6#	c #4D655E",
"7#	c #50635E",
"8#	c #50615C",
"9#	c #4E5F5A",
"0#	c #4C5E5C",
"a#	c #4F5F5B",
"b#	c #51605B",
"c#	c #526159",
"d#	c #496261",
"e#	c #476261",
"f#	c #486262",
"g#	c #4E6463",
"h#	c #506463",
"i#	c #4F625E",
"j#	c #4D605D",
"k#	c #4E605C",
"l#	c #4E615C",
"m#	c #54655C",
"n#	c #526559",
"o#	c #55655B",
"p#	c #53645A",
"q#	c #52645A",
"r#	c #51645C",
"s#	c #546864",
"t#	c #536662",
"u#	c #4D645D",
"v#	c #4E645D",
"w#	c #4D635C",
"x#	c #4D625D",
"y#	c #4E615D",
"z#	c #50615D",
"A#	c #50625F",
"B#	c #526361",
"C#	c #51615E",
"D#	c #55615C",
"E#	c #596059",
"F#	c #486261",
"G#	c #456261",
"H#	c #476161",
"I#	c #4F6361",
"J#	c #51635F",
"K#	c #4D615C",
"L#	c #4B605C",
"M#	c #4B625C",
"N#	c #49605B",
"O#	c #4E625B",
"P#	c #50635B",
"Q#	c #50645C",
"R#	c #51645B",
"S#	c #506560",
"T#	c #4B6864",
"U#	c #4A625B",
"V#	c #47605A",
"W#	c #47605B",
"X#	c #4C615E",
"Y#	c #4F6260",
"Z#	c #4E6361",
"`#	c #56645F",
" $	c #5A655D",
".$	c #5B645E",
"+$	c #5E635E",
"@$	c #446061",
"#$	c #456060",
"$$	c #46605F",
"%$	c #46605D",
"&$	c #45605C",
"*$	c #47605C",
"=$	c #4A605A",
"-$	c #48605A",
";$	c #48615B",
">$	c #4F635C",
",$	c #51625C",
"'$	c #52635A",
")$	c #53655A",
"!$	c #4B6059",
"~$	c #4E6159",
"{$	c #4C625B",
"]$	c #46615B",
"^$	c #45605B",
"/$	c #445F59",
"($	c #415E5C",
"_$	c #416161",
":$	c #486462",
"<$	c #546560",
"[$	c #496361",
"}$	c #475F60",
"|$	c #4C6262",
"1$	c #416162",
"2$	c #3D6061",
"3$	c #466161",
"4$	c #435F5F",
"5$	c #435F5D",
"6$	c #44605D",
"7$	c #49625D",
"8$	c #49625C",
"9$	c #486059",
"0$	c #4A605B",
"a$	c #4D625A",
"b$	c #50625A",
"c$	c #52635C",
"d$	c #4E615A",
"e$	c #495F59",
"f$	c #445E59",
"g$	c #415C57",
"h$	c #415D58",
"i$	c #3F5E5C",
"j$	c #3F5F5D",
"k$	c #3B605F",
"l$	c #3A6061",
"m$	c #3A6062",
"n$	c #3C6263",
"o$	c #3D6265",
"p$	c #416467",
"q$	c #4B6568",
"r$	c #466165",
"s$	c #485F5D",
"t$	c #435E5D",
"u$	c #415D5C",
"v$	c #445F5D",
"w$	c #445F5A",
"x$	c #455F59",
"y$	c #46605C",
"z$	c #4B605A",
"A$	c #4D5F58",
"B$	c #485F58",
"C$	c #495E59",
"D$	c #455C59",
"E$	c #405B58",
"F$	c #3F5C59",
"G$	c #3D5C59",
"H$	c #3E5C59",
"I$	c #3D5D59",
"J$	c #3D5E5A",
"K$	c #3C605E",
"L$	c #3B6263",
"M$	c #3E6465",
"N$	c #416566",
"O$	c #486767",
"P$	c #4A6366",
"Q$	c #455E5A",
"R$	c #475F5A",
"S$	c #4C6059",
"T$	c #4A5F57",
"U$	c #48615C",
"V$	c #4A615B",
"W$	c #4C605B",
"X$	c #4A6059",
"Y$	c #4B605B",
"Z$	c #455D5A",
"`$	c #445C5A",
" %	c #455D5B",
".%	c #435D5A",
"+%	c #3F5D5C",
"@%	c #3F5C5A",
"#%	c #405B57",
"$%	c #3C5C5A",
"%%	c #3E5C5A",
"&%	c #3E5D5B",
"*%	c #3D5F5E",
"=%	c #3B6060",
"-%	c #426164",
";%	c #426365",
">%	c #406566",
",%	c #406767",
"'%	c #455F5C",
")%	c #475F5C",
"!%	c #4C615B",
"~%	c #4F625A",
"{%	c #546257",
"]%	c #526256",
"^%	c #4E6158",
"/%	c #4D635E",
"(%	c #4B635F",
"_%	c #4F6261",
":%	c #4F6363",
"<%	c #4A6160",
"[%	c #4A605F",
"}%	c #465F5E",
"|%	c #3D5D5B",
"1%	c #3B5C5A",
"2%	c #3C5D5A",
"3%	c #3C5D5B",
"4%	c #3B5D5C",
"5%	c #3C5D5C",
"6%	c #405D5A",
"7%	c #3E5A5A",
"8%	c #3E5C5C",
"9%	c #3C5E5D",
"0%	c #446466",
"a%	c #436365",
"b%	c #416465",
"c%	c #406667",
"d%	c #496059",
"e%	c #526359",
"f%	c #51645A",
"g%	c #50655D",
"h%	c #496360",
"i%	c #4A6463",
"j%	c #4A6161",
"k%	c #4A605E",
"l%	c #49605E",
"m%	c #3B5E5C",
"n%	c #3A5F5D",
"o%	c #3A605D",
"p%	c #3B5F5D",
"q%	c #3C5F5D",
"r%	c #3D6060",
"s%	c #3B5F61",
"t%	c #3C5F60",
"u%	c #3D6062",
"v%	c #406365",
"w%	c #436767",
"x%	c #40696A",
"y%	c #406768",
"z%	c #4B615A",
"A%	c #4C625A",
"B%	c #4E635B",
"C%	c #4B625F",
"D%	c #47615D",
"E%	c #496260",
"F%	c #49615F",
"G%	c #49605F",
"H%	c #455E5C",
"I%	c #3F5D5B",
"J%	c #3C5E5C",
"K%	c #3C605D",
"L%	c #3B605D",
"M%	c #3B605E",
"N%	c #3C605F",
"O%	c #3C6061",
"P%	c #3C6363",
"Q%	c #3C6365",
"R%	c #3C6465",
"S%	c #3B6365",
"T%	c #3A6265",
"U%	c #3C6467",
"V%	c #3C6567",
"W%	c #406666",
"X%	c #46605B",
"Y%	c #4F645D",
"Z%	c #48615E",
"`%	c #48615F",
" &	c #42605E",
".&	c #3C5F5C",
"+&	c #3C5E5B",
"@&	c #3B605C",
"#&	c #3B5F5F",
"$&	c #3B6061",
"%&	c #3B6565",
"&&	c #3A6365",
"*&	c #3A6465",
"=&	c #3C6769",
"-&	c #3D666A",
";&	c #3F6868",
">&	c #44605A",
",&	c #4B615B",
"'&	c #4E645A",
")&	c #4F655E",
"!&	c #4D6563",
"~&	c #4F6763",
"{&	c #496362",
"]&	c #3E605F",
"^&	c #3B5E5D",
"/&	c #3B5F5C",
"(&	c #3A5D5D",
"_&	c #375E5C",
":&	c #385F5D",
"<&	c #3A605E",
"[&	c #3A6060",
"}&	c #3A6264",
"|&	c #3B6566",
"1&	c #3A6565",
"2&	c #3A6567",
"3&	c #3F696A",
"4&	c #3E6A6E",
"5&	c #3D696C",
"6&	c #446059",
"7&	c #47615B",
"8&	c #4A625A",
"9&	c #4F625F",
"0&	c #496161",
"a&	c #426161",
"b&	c #3A5C5B",
"c&	c #385C5B",
"d&	c #3A5E5C",
"e&	c #3A5F5E",
"f&	c #3A6263",
"g&	c #396565",
"h&	c #376568",
"i&	c #446766",
"j&	c #386668",
"k&	c #386569",
"l&	c #3D6769",
"m&	c #3C6A6E",
"n&	c #3C696B",
"o&	c #42605C",
"p&	c #425D5B",
"q&	c #425D5A",
"r&	c #425E5A",
"s&	c #435F5B",
"t&	c #47615C",
"u&	c #4A625D",
"v&	c #48625F",
"w&	c #3B5B5B",
"x&	c #3C5B5A",
"y&	c #3A5A59",
"z&	c #3B5B5A",
"A&	c #396161",
"B&	c #3A6363",
"C&	c #396365",
"D&	c #376366",
"E&	c #336467",
"F&	c #446667",
"G&	c #3F6767",
"H&	c #30646A",
"I&	c #33656B",
"J&	c #3A666A",
"K&	c #3B6768",
"L&	c #405E5C",
"M&	c #405C5A",
"N&	c #405D5B",
"O&	c #405E5D",
"P&	c #405D5C",
"Q&	c #415E5A",
"R&	c #415E59",
"S&	c #405E5B",
"T&	c #3D5E5D",
"U&	c #3B5C5B",
"V&	c #3C5A5A",
"W&	c #3D5A59",
"X&	c #3C5A59",
"Y&	c #3E5A58",
"Z&	c #3D5D5E",
"`&	c #3A5E5D",
" *	c #385F60",
".*	c #376163",
"+*	c #366265",
"@*	c #366266",
"#*	c #3B6567",
"$*	c #32646A",
"%*	c #2F646B",
"&*	c #4B6C6B",
"**	c #415D5A",
"=*	c #425C57",
"-*	c #415A56",
";*	c #405C56",
">*	c #405D58",
",*	c #415D5B",
"'*	c #415C59",
")*	c #405C59",
"!*	c #3E5A59",
"~*	c #3F5A59",
"{*	c #405A59",
"]*	c #3F5A58",
"^*	c #3F5B59",
"/*	c #405B59",
"(*	c #3C5D5D",
"_*	c #3A5E5F",
":*	c #3A5E61",
"<*	c #385F61",
"[*	c #366062",
"}*	c #376063",
"|*	c #396465",
"1*	c #386566",
"2*	c #396568",
"3*	c #386567",
"4*	c #416869",
"5*	c #4C6C6B",
"6*	c #4E6D6B",
"7*	c #3F5D59",
"8*	c #435F5A",
"9*	c #435F59",
"0*	c #425D58",
"a*	c #425C58",
"b*	c #445D59",
"c*	c #435D59",
"d*	c #415B59",
"e*	c #3C6364",
"f*	c #3C6264",
"g*	c #40605F",
"h*	c #40605E",
"i*	c #3E5F60",
"j*	c #3A5F61",
"k*	c #3A5D61",
"l*	c #3A5D60",
"m*	c #396062",
"n*	c #3A6667",
"o*	c #3B6767",
"p*	c #3B6868",
"q*	c #3C6869",
"  . + @ # $ % & * = - ; > , ' ) ! ~ { ] ^ / ( _ : < [ } | 1 2 3 ",
"4     5 6 6 7 8 9 0 a b c d 6 e f g g h i j k l m m n o p q r s ",
"t @ @ u v 6 6 6 w x y z A B C D E g F i G H I J K L M N O P Q R ",
"t @ d S T 6 T T w U T V W X Y Z `  ...+.@.~ #.$.%.&.*.n =.-.;.>.",
",.5 '.'.).v !.6 ~.{.S ].^././.(._.:.<.<.[.}.|.1.2.3.4.5.6.7.8.9.",
"@ 5 6 6 0.0.a.$ b.c.d.% e.f.g.h.i.j.k.l.m.n.o.p.q.2.r.s.t.u.8.v.",
"w.x.y.z.0.A.B.C.D.c & e.E.' F.G.H.~ I.J.K.L.M.N.O.P.Q.R.S.T.T.U.",
"z V.W.X.Y.Z.`.`. +.+Z.& ++B.@+F.#+H.$+%+&+*+=+N.-+|.;+>+T.T.T.,+",
"c.'+)+!+~+) {+]+^+/+(+_+a.:+<+[+}+|+1+2+3+4+=+5+6+7+8+9+0+a+a+J ",
"b+c+~+d+e+f+g+h+{+i+G.j+k+l+m+n+o+p+q+r+s+t+u+O.v+a+w+x+y+z+A+B+",
"C+f+D+E+F+G+H+I+J+G.K+L+M+N+O+P+` Q+R+r+S+T+U+O.V+0+0+0+W+X+Y+F+",
"Z+`+ @.@+@@@#@$@%@E.&@*@=@-@;@>@,@'@)@!@~@{@]@^@/@(@_@:@<@=+[@}@",
"|@1@2@M 3@4@5@6@7@8@9@0@a@b@c@d@e@e@f@)@g@h@i@j@k@l@m@n@=+o@=+p@",
"q@] r@s@6+t@u@v@w@x@y@z@A@B@C@M.D@E@D@F@G@H@^@I@J@K@L@M@N@O@N@P@",
"Q@R@S@T@J.U@u@V@W@X@Y@Z@`@ #.#+#.#'@M.F@@###$#%#&#*#=#-#;#>#,#'#",
"6@)#!#!#~#{#]#^#/#(#_#:#<#[#}#|#1#2#3#4#E@P@5#6#X+7#8#9#0#a#b#c#",
"d#e#f#g#h#i#j#k#l#N@|#m#R+n#}#o#p#q#r#s#t#u#v#w#x#y#z#A#B#C#D#E#",
"F#G#H#I#J#K#L#M#3 N#O#P#Q#n#}#p#R#R#O@S#T#U#V#W#*#X#Y#Z#`# $.$+$",
"e#@$#$$$%$&$*$o.=$-$;$>$N@,$'$)$P#!$~${$]$^$/$($_$:$<$[$}$|$1$2$",
"3$4$5$6$6$&$%$7$8$9$0$a$b$O@N@c$d$e$0$f$g$h$i$j$k$l$m$n$o$p$q$r$",
"s$t$u$5$v$w$x$y$y$3 L#z$d$O@A$B$C$D$E$F$G$H$I$J$K$l$L$M$N$O$P$q$",
"&$Q$R$z$S$T$e$W#U$V$W$X$Y$3 Z$`$ %.%+%@%#%G$$%%%&%*%=%2$-%;%>%,%",
"'%)%!%~%{%]%^%&#M#&#/%(%_%:%<%[%}%|%1%2%3%4%5%6%7%8%9%1$0%a%b%c%",
"&$d%d$O@e%f%F@4+g%u#h%i%j%k%l%}%3%m%n%o%p%9%q%r%=%s%t%u%v%w%x%y%",
"9$9$V$z%A%B%q+v#C%D%:@E%F%G%H%I%J%K%L%n%o%M%N%O%P%Q%R%S%T%U%V%W%",
"X%W#V#;${$h@F@Y%n@Z%`%F%j% &.&+&m%p%@&o%n%#&$&$&S%%&%&&&*&=&-&;&",
"/$>&X%,&'&i@M.)&m.!&~&{&]&@&L%^&/&m%(&_&:&<&[&}&|&1&2&2&|&3&4&5&",
"f$f$6&X%7&8&w#u@9&0&a&K%o%o%o%n%m%b&c&d&e&[&f&*&g&h&i&j&k&l&m&n&",
"o&p&q&q&r&s&t&8$u&v&q%n%o%n%4%w&x&y&z&m%<&A&B&C&D&E&F&G&H&I&J&K&",
"L&M&N&O&P&u$Q&Q&R&S&T&3%U&V&W&X&X&Y&P&Z&`& *.*+*@*C&|&#*$*%*&*&*",
"I%+%P&N&**=*-*;*>*,*'*)*!*~*{*]*^*/*S&(*_*:*<*[*}*|*1*2*3*4*5*6*",
"7*&%P&($8*/$9*0*a*b*c*)*/*d*u$e*f*g*h*i*j*k*l* *m*T%2&n*n*o*p*q*"};
