/* XPM */
static char * meep_xpm[] = {
"26 21 530 2",
"  	c #1C5368",
". 	c #1D5467",
"+ 	c #1D5567",
"@ 	c #1D5669",
"# 	c #1C576A",
"$ 	c #1E5A6A",
"% 	c #215D6B",
"& 	c #225C6B",
"* 	c #235C6C",
"= 	c #225D6C",
"- 	c #225D6A",
"; 	c #2A626C",
"> 	c #34676E",
", 	c #32656E",
"' 	c #2C636D",
") 	c #25606B",
"! 	c #1E5B69",
"~ 	c #1B5967",
"{ 	c #195866",
"] 	c #175867",
"^ 	c #145567",
"/ 	c #125163",
"( 	c #0E4D5F",
"_ 	c #094A5C",
": 	c #05495B",
"< 	c #05485B",
"[ 	c #1D5568",
"} 	c #1D5768",
"| 	c #1E5969",
"1 	c #245F6C",
"2 	c #25616D",
"3 	c #25606E",
"4 	c #2C636E",
"5 	c #4C7573",
"6 	c #739380",
"7 	c #87A489",
"8 	c #7E9A80",
"9 	c #658674",
"0 	c #517A72",
"a 	c #2F656D",
"b 	c #1E5B6A",
"c 	c #1C5969",
"d 	c #1A5868",
"e 	c #185868",
"f 	c #175768",
"g 	c #165467",
"h 	c #135164",
"i 	c #0F4E61",
"j 	c #0C4C5F",
"k 	c #1D5367",
"l 	c #1E5568",
"m 	c #205768",
"n 	c #205A68",
"o 	c #225C69",
"p 	c #255E6B",
"q 	c #27606D",
"r 	c #29636E",
"s 	c #2D666F",
"t 	c #567D76",
"u 	c #849F7F",
"v 	c #A3BA8E",
"w 	c #B8D09F",
"x 	c #B8CF9D",
"y 	c #9BB083",
"z 	c #7D9571",
"A 	c #618372",
"B 	c #31656D",
"C 	c #205C6A",
"D 	c #1A5768",
"E 	c #1A5869",
"F 	c #19576A",
"G 	c #17566A",
"H 	c #145467",
"I 	c #125266",
"J 	c #205467",
"K 	c #225767",
"L 	c #255A68",
"M 	c #255C6A",
"N 	c #265D6B",
"O 	c #295F6C",
"P 	c #2F6770",
"Q 	c #457473",
"R 	c #83A07E",
"S 	c #90A375",
"T 	c #90A173",
"U 	c #ABBE8C",
"V 	c #CCE2A8",
"W 	c #C0D49C",
"X 	c #8D9E6E",
"Y 	c #83996E",
"Z 	c #587F70",
"` 	c #2F656A",
" .	c #265F6A",
"..	c #1F5B6B",
"+.	c #1D596B",
"@.	c #1B596A",
"#.	c #19586A",
"$.	c #175769",
"%.	c #155567",
"&.	c #245766",
"*.	c #275A67",
"=.	c #285C6A",
"-.	c #2B5E6A",
";.	c #2D616B",
">.	c #2F636D",
",.	c #31666F",
"'.	c #356B72",
").	c #5E8478",
"!.	c #97B081",
"~.	c #92A572",
"{.	c #8FA06D",
"].	c #8D9E6C",
"^.	c #B9CC95",
"/.	c #CEE0A4",
"(.	c #A3B279",
"_.	c #8F9D62",
":.	c #79926C",
"<.	c #467266",
"[.	c #386968",
"}.	c #29616A",
"|.	c #205C6C",
"1.	c #1C5B6C",
"2.	c #1B5A6B",
"3.	c #175669",
"4.	c #285765",
"5.	c #2B5B68",
"6.	c #2C5E6A",
"7.	c #2F616C",
"8.	c #31646D",
"9.	c #35666F",
"0.	c #376970",
"a.	c #3F6F71",
"b.	c #6B8D78",
"c.	c #A9BD85",
"d.	c #A6B77A",
"e.	c #A8B77C",
"f.	c #A0AF75",
"g.	c #A9B77E",
"h.	c #BDCA8C",
"i.	c #A7B06F",
"j.	c #AAAD5F",
"k.	c #A6AC64",
"l.	c #768B5E",
"m.	c #507663",
"n.	c #376868",
"o.	c #27616C",
"p.	c #205D6E",
"q.	c #1D5B6C",
"r.	c #1B596B",
"s.	c #18576A",
"t.	c #295765",
"u.	c #2E5D68",
"v.	c #326269",
"w.	c #34646B",
"x.	c #38686D",
"y.	c #3C6B6F",
"z.	c #426F6E",
"A.	c #547C6E",
"B.	c #7F9871",
"C.	c #BDC67D",
"D.	c #C2CB81",
"E.	c #BFCA84",
"F.	c #BECB86",
"G.	c #BAC581",
"H.	c #B4BC77",
"I.	c #B2B669",
"J.	c #C9C567",
"K.	c #D6CD61",
"L.	c #ACB05C",
"M.	c #668361",
"N.	c #406E68",
"O.	c #2D646C",
"P.	c #25616F",
"Q.	c #215E6D",
"R.	c #19586B",
"S.	c #265764",
"T.	c #2D5D67",
"U.	c #346269",
"V.	c #39666A",
"W.	c #3F6B6C",
"X.	c #45726E",
"Y.	c #748F6B",
"Z.	c #ADB76B",
"`.	c #D6D36C",
" +	c #D7D67B",
".+	c #DCE28F",
"++	c #DAE393",
"@+	c #D3DB8F",
"#+	c #CCD486",
"$+	c #C9CD7B",
"%+	c #CAC86E",
"&+	c #BFBE62",
"*+	c #99A45F",
"=+	c #648362",
"-+	c #427068",
";+	c #2E656C",
">+	c #26616D",
",+	c #225F6D",
"'+	c #1E5B6C",
")+	c #1A586A",
"!+	c #356269",
"~+	c #3C686B",
"{+	c #46706E",
"]+	c #517A71",
"^+	c #668973",
"/+	c #8CA371",
"(+	c #CDD171",
"_+	c #EEE871",
":+	c #E4DE79",
"<+	c #E8EB90",
"[+	c #EEF49B",
"}+	c #E4EB97",
"|+	c #D5DC8B",
"1+	c #C9CD7E",
"2+	c #BBBD70",
"3+	c #98A468",
"4+	c #6D8B65",
"5+	c #557C67",
"6+	c #3E6F6A",
"7+	c #2E666D",
"8+	c #235E6C",
"9+	c #1E5A6C",
"0+	c #1B586B",
"a+	c #265864",
"b+	c #2C5D66",
"c+	c #366569",
"d+	c #406D6C",
"e+	c #4B7670",
"f+	c #5A8376",
"g+	c #70947C",
"h+	c #93AE80",
"i+	c #C1CF81",
"j+	c #EAEA82",
"k+	c #E6E583",
"l+	c #EDEE93",
"m+	c #F1F39B",
"n+	c #E7EA93",
"o+	c #D1D586",
"p+	c #BABD76",
"q+	c #ADB271",
"r+	c #8FA274",
"s+	c #59826E",
"t+	c #47766C",
"u+	c #386C6B",
"v+	c #2D656D",
"w+	c #28626E",
"x+	c #245E6C",
"y+	c #1F5A6B",
"z+	c #1B5768",
"A+	c #285A64",
"B+	c #2D6067",
"C+	c #36676A",
"D+	c #42706E",
"E+	c #517D74",
"F+	c #638D7D",
"G+	c #78A186",
"H+	c #94B78E",
"I+	c #BCD397",
"J+	c #EFF39C",
"K+	c #F0F19A",
"L+	c #EBEB94",
"M+	c #E4E48D",
"N+	c #D6D680",
"O+	c #C5C674",
"P+	c #BFC375",
"Q+	c #BFC782",
"R+	c #8EA47C",
"S+	c #4F7C74",
"T+	c #3F706F",
"U+	c #33676B",
"V+	c #2B616B",
"W+	c #275E6B",
"X+	c #235D6A",
"Y+	c #1D596A",
"Z+	c #1B576A",
"`+	c #2A5C65",
" @	c #2F6168",
".@	c #38696B",
"+@	c #42736F",
"@@	c #528176",
"#@	c #6B9682",
"$@	c #85B090",
"%@	c #A1C89D",
"&@	c #C4E2A9",
"*@	c #F4FAAB",
"=@	c #FEFEB0",
"-@	c #FBFCB4",
";@	c #F6F6A7",
">@	c #EFEF99",
",@	c #EDED90",
"'@	c #E6EA8C",
")@	c #C9D381",
"!@	c #8BA177",
"~@	c #4C7874",
"{@	c #3B6D70",
"]@	c #32656D",
"^@	c #2A606B",
"/@	c #245B6A",
"(@	c #215969",
"_@	c #1D5869",
":@	c #2B5D66",
"<@	c #316369",
"[@	c #3A6B6B",
"}@	c #457670",
"|@	c #558578",
"1@	c #6E9B84",
"2@	c #8CB895",
"3@	c #ABD6A8",
"4@	c #CDF0B5",
"5@	c #F4FDB6",
"6@	c #FFFFB1",
"7@	c #FFFFB5",
"8@	c #FFFFB2",
"9@	c #FFFEA6",
"0@	c #FCFD95",
"a@	c #EDF184",
"b@	c #CBD377",
"c@	c #8BA172",
"d@	c #507B71",
"e@	c #3C6C70",
"f@	c #32646D",
"g@	c #2B5F6A",
"h@	c #255A6A",
"i@	c #205769",
"j@	c #1C5569",
"k@	c #1C5568",
"l@	c #2E5D66",
"m@	c #346369",
"n@	c #3D6B6C",
"o@	c #487771",
"p@	c #59867A",
"q@	c #6F9D86",
"r@	c #8BB996",
"s@	c #ABD8A9",
"t@	c #CBF1B8",
"u@	c #F3FDBC",
"v@	c #FFFFB3",
"w@	c #FFFFB0",
"x@	c #FFFFA9",
"y@	c #FFFF9C",
"z@	c #FFFF8D",
"A@	c #F8F981",
"B@	c #D8DE75",
"C@	c #93A96F",
"D@	c #5C836F",
"E@	c #44706E",
"F@	c #35656C",
"G@	c #2D5F6A",
"H@	c #275969",
"I@	c #215568",
"J@	c #1D5468",
"K@	c #326068",
"L@	c #37656A",
"M@	c #406D6E",
"N@	c #4C7872",
"O@	c #5C887A",
"P@	c #739F86",
"Q@	c #8FBB97",
"R@	c #ADDAAA",
"S@	c #C7EFB7",
"T@	c #F0FBBA",
"U@	c #FFFFB4",
"V@	c #FFFFAD",
"W@	c #FFFFA2",
"X@	c #FFFF97",
"Y@	c #FFFF9B",
"Z@	c #FEFE98",
"`@	c #E0E477",
" #	c #98AD6C",
".#	c #61856D",
"+#	c #47716D",
"@#	c #35646C",
"##	c #2C5D6A",
"$#	c #275868",
"%#	c #225467",
"&#	c #1D5268",
"*#	c #1C5168",
"=#	c #336066",
"-#	c #3A676A",
";#	c #457170",
">#	c #547E75",
",#	c #628D7C",
"'#	c #76A186",
")#	c #8DB793",
"!#	c #A2CCA2",
"~#	c #B5DFAD",
"{#	c #E2F3B2",
"]#	c #FEFF9A",
"^#	c #FEFF92",
"/#	c #FFFFA6",
"(#	c #FDFDA9",
"_#	c #D9DF7A",
":#	c #8DA569",
"<#	c #5A806A",
"[#	c #426C6B",
"}#	c #33606B",
"|#	c #2A5A68",
"1#	c #245667",
"2#	c #205365",
"3#	c #1D5066",
"4#	c #1B4F66",
"5#	c #356266",
"6#	c #3F6B6A",
"7#	c #4A7570",
"8#	c #568076",
"9#	c #5F897C",
"0#	c #6A9481",
"a#	c #79A389",
"b#	c #89B494",
"c#	c #9CC59F",
"d#	c #C0DDA9",
"e#	c #EAF3A9",
"f#	c #FBFDA3",
"g#	c #F6FC93",
"h#	c #F3F987",
"i#	c #F5F88A",
"j#	c #EBEF88",
"k#	c #B9C772",
"l#	c #759568",
"m#	c #527A69",
"n#	c #3C686A",
"o#	c #2E5D69",
"p#	c #275767",
"q#	c #235465",
"r#	c #1D5065",
"s#	c #1B4D65",
"t#	c #194D65",
"u#	c #386668",
"v#	c #3E6A6A",
"w#	c #45706F",
"x#	c #4D7673",
"y#	c #527D77",
"z#	c #5B847A",
"A#	c #68907F",
"B#	c #759F88",
"C#	c #85B092",
"D#	c #92BB98",
"E#	c #AECC9D",
"F#	c #D6E69D",
"G#	c #DDEB91",
"H#	c #D4E284",
"I#	c #CBD87B",
"J#	c #ADBF74",
"K#	c #819E6C",
"L#	c #5F8468",
"M#	c #487269",
"N#	c #376369",
"O#	c #2B5A68",
"P#	c #255666",
"Q#	c #205164",
"R#	c #1C4E64",
"S#	c #194B64",
"T#	c #174B63",
"U#	c #376268",
"V#	c #3B666A",
"W#	c #3F6A6D",
"X#	c #436D6F",
"Y#	c #497472",
"Z#	c #507A74",
"`#	c #598379",
" $	c #648D7E",
".$	c #709A84",
"+$	c #7EA78C",
"@$	c #90B68F",
"#$	c #95B789",
"$$	c #93B181",
"%$	c #7FA075",
"&$	c #6E926F",
"*$	c #5E846A",
"=$	c #4E7769",
"-$	c #3F6A69",
";$	c #316069",
">$	c #295A67",
",$	c #255565",
"'$	c #215065",
")$	c #1B4C63",
"!$	c #184A63",
"~$	c #154962",
"{$	c #396069",
"]$	c #3C646B",
"^$	c #3E676D",
"/$	c #41696F",
"($	c #456D70",
"_$	c #4A7271",
":$	c #507874",
"<$	c #598078",
"[$	c #60887B",
"}$	c #628B7D",
"|$	c #668F7E",
"1$	c #709881",
"2$	c #6D947E",
"3$	c #698F79",
"4$	c #608773",
"5$	c #557C6E",
"6$	c #4A746B",
"7$	c #406B6A",
"8$	c #356468",
"9$	c #2E5E67",
"0$	c #295967",
"a$	c #245465",
"b$	c #205064",
"c$	c #1B4B63",
"d$	c #174A63",
"e$	c #144861",
"f$	c #395F6A",
"g$	c #3B626B",
"h$	c #3C656C",
"i$	c #40676E",
"j$	c #436A6F",
"k$	c #466B70",
"l$	c #4A6F71",
"m$	c #507672",
"n$	c #557B75",
"o$	c #567D77",
"p$	c #588077",
"q$	c #5E8579",
"r$	c #5C8378",
"s$	c #567D74",
"t$	c #507870",
"u$	c #466F6D",
"v$	c #3F696C",
"w$	c #38646A",
"x$	c #316068",
"y$	c #2C5B66",
"z$	c #275665",
"A$	c #235364",
"B$	c #1E4F62",
"C$	c #1A4B62",
"D$	c #174962",
"E$	c #144761",
"  . + @ # $ % & * = - ; > , ' ) ! ~ { ] ^ / ( _ : < ",
". [ + } | & 1 2 3 4 5 6 7 8 9 0 a b c d e f g h i j ",
"k l m n o p q r s t u v w x y z A B C c D E F G H I ",
"J K L M N O 4 P Q R S T U V W X Y Z `  ...+.@.#.$.%.",
"&.*.=.-.;.>.,.'.).!.~.{.].^./.(._.:.<.[.}.|.1.2.E 3.",
"4.5.6.7.8.9.0.a.b.c.d.e.f.g.h.i.j.k.l.m.n.o.p.q.r.s.",
"t.u.v.w.x.y.z.A.B.C.D.E.F.G.H.I.J.K.L.M.N.O.P.Q.1.R.",
"S.T.U.V.W.X.A.Y.Z.`. +.+++@+#+$+%+&+*+=+-+;+>+,+'+)+",
"S.T.!+~+{+]+^+/+(+_+:+<+[+}+|+1+2+3+4+5+6+7+o.8+9+0+",
"a+b+c+d+e+f+g+h+i+j+k+l+m+n+o+p+q+r+s+t+u+v+w+x+y+z+",
"A+B+C+D+E+F+G+H+I+J+K+L+M+N+O+P+Q+R+S+T+U+V+W+X+Y+Z+",
"`+ @.@+@@@#@$@%@&@*@=@-@;@>@,@'@)@!@~@{@]@^@/@(@_@Z+",
":@<@[@}@|@1@2@3@4@5@6@7@8@9@0@a@b@c@d@e@f@g@h@i@j@k@",
"l@m@n@o@p@q@r@s@t@u@v@w@x@y@z@A@B@C@D@E@F@G@H@I@J@  ",
"K@L@M@N@O@P@Q@R@S@T@U@V@W@X@Y@Z@`@ #.#+#@###$#%#&#*#",
"=#-#;#>#,#'#)#!#~#{#=@x@]#^#/#(#_#:#<#[#}#|#1#2#3#4#",
"5#6#7#8#9#0#a#b#c#d#e#f#g#h#i#j#k#l#m#n#o#p#q#r#s#t#",
"u#v#w#x#y#z#A#B#C#D#E#F#G#H#I#J#K#L#M#N#O#P#Q#R#S#T#",
"U#V#W#X#Y#Z#`# $.$B#+$@$#$$$%$&$*$=$-$;$>$,$'$)$!$~$",
"{$]$^$/$($_$:$<$[$}$|$1$2$3$4$5$6$7$8$9$0$a$b$c$d$e$",
"f$g$h$i$j$k$l$m$n$o$p$q$r$s$t$u$v$w$x$y$z$A$B$C$D$E$"};
