/* XPM */
static char * ult_ryze_xpm[] = {
"32 27 855 2",
"  	c #1C3444",
". 	c #223846",
"+ 	c #2B3A47",
"@ 	c #373C44",
"# 	c #403D44",
"$ 	c #4B464D",
"% 	c #4E4951",
"& 	c #4A474E",
"* 	c #4E4D56",
"= 	c #494D55",
"- 	c #53545C",
"; 	c #595A67",
"> 	c #50585D",
", 	c #515C5D",
"' 	c #486066",
") 	c #3B5B60",
"! 	c #405A5F",
"~ 	c #355B61",
"{ 	c #2E6168",
"] 	c #296670",
"^ 	c #2F656E",
"/ 	c #406268",
"( 	c #4A6366",
"_ 	c #41686A",
": 	c #3B666A",
"< 	c #39676C",
"[ 	c #41646B",
"} 	c #4F6472",
"| 	c #516677",
"1 	c #5A6372",
"2 	c #5E6674",
"3 	c #64666F",
"4 	c #2A3642",
"5 	c #333B46",
"6 	c #3D414A",
"7 	c #46474D",
"8 	c #47454C",
"9 	c #554E56",
"0 	c #55505A",
"a 	c #4A4C57",
"b 	c #3F474F",
"c 	c #50515D",
"d 	c #465761",
"e 	c #3D5C63",
"f 	c #3B5F66",
"g 	c #365E64",
"h 	c #3E5E62",
"i 	c #495D60",
"j 	c #5A6269",
"k 	c #4A666E",
"l 	c #32646C",
"m 	c #2F6770",
"n 	c #336A72",
"o 	c #37686E",
"p 	c #4E6466",
"q 	c #506566",
"r 	c #52696B",
"s 	c #446871",
"t 	c #46626D",
"u 	c #4D626E",
"v 	c #536677",
"w 	c #5B677A",
"x 	c #646977",
"y 	c #6B6974",
"z 	c #3C4954",
"A 	c #464F58",
"B 	c #464C53",
"C 	c #46494D",
"D 	c #414849",
"E 	c #4E5056",
"F 	c #3E494C",
"G 	c #3C4B52",
"H 	c #585964",
"I 	c #465A62",
"J 	c #376266",
"K 	c #386267",
"L 	c #3C6166",
"M 	c #456064",
"N 	c #4D6263",
"O 	c #426567",
"P 	c #3C6265",
"Q 	c #38666A",
"R 	c #39666B",
"S 	c #49696F",
"T 	c #5B6B74",
"U 	c #44676E",
"V 	c #42626F",
"W 	c #4E6170",
"X 	c #5F6A74",
"Y 	c #56686D",
"Z 	c #5F666B",
"` 	c #5D6368",
" .	c #5F656F",
"..	c #5D6472",
"+.	c #616679",
"@.	c #676A7D",
"#.	c #525258",
"$.	c #4D5059",
"%.	c #4B565F",
"&.	c #47595B",
"*.	c #445855",
"=.	c #4E5557",
"-.	c #545A61",
";.	c #3A5961",
">.	c #365C61",
",.	c #3A6064",
"'.	c #396065",
").	c #466064",
"!.	c #495F61",
"~.	c #686566",
"{.	c #4D6162",
"].	c #45676D",
"^.	c #3D696C",
"/.	c #3D7174",
"(.	c #427072",
"_.	c #566A74",
":.	c #4B6476",
"<.	c #56657E",
"[.	c #566579",
"}.	c #5E6470",
"|.	c #666975",
"1.	c #576166",
"2.	c #5F656C",
"3.	c #65687A",
"4.	c #676C87",
"5.	c #606780",
"6.	c #62667B",
"7.	c #4E575D",
"8.	c #4A575C",
"9.	c #4D5B5D",
"0.	c #455F5C",
"a.	c #415E58",
"b.	c #425F61",
"c.	c #365D63",
"d.	c #315D63",
"e.	c #3D5F63",
"f.	c #566262",
"g.	c #585E5E",
"h.	c #5F6062",
"i.	c #626365",
"j.	c #6D6A6A",
"k.	c #506669",
"l.	c #42686C",
"m.	c #426F72",
"n.	c #42747A",
"o.	c #447181",
"p.	c #536B82",
"q.	c #4C697D",
"r.	c #446272",
"s.	c #5B6270",
"t.	c #595F6F",
"u.	c #475369",
"v.	c #64697C",
"w.	c #666B82",
"x.	c #525E84",
"y.	c #45598E",
"z.	c #5F6A97",
"A.	c #5C638A",
"B.	c #5F647D",
"C.	c #446263",
"D.	c #446262",
"E.	c #43615F",
"F.	c #405E5B",
"G.	c #385F5E",
"H.	c #365F60",
"I.	c #366265",
"J.	c #396165",
"K.	c #4E5D5C",
"L.	c #615F5D",
"M.	c #656462",
"N.	c #646665",
"O.	c #666969",
"P.	c #677A7E",
"Q.	c #799DA0",
"R.	c #69A6B2",
"S.	c #6CA7B9",
"T.	c #6BA2AD",
"U.	c #4B7F93",
"V.	c #4C7186",
"W.	c #586A7C",
"X.	c #556B79",
"Y.	c #63697C",
"Z.	c #5C6177",
"`.	c #626983",
" +	c #6C718B",
".+	c #4E5E82",
"++	c #44567B",
"@+	c #3F5A84",
"#+	c #676F9F",
"$+	c #586394",
"%+	c #5D6985",
"&+	c #4C676A",
"*+	c #405F5F",
"=+	c #425D5D",
"-+	c #435E5C",
";+	c #426461",
">+	c #3E605D",
",+	c #45625F",
"'+	c #545F5C",
")+	c #5E5F5D",
"!+	c #646264",
"~+	c #66667B",
"{+	c #6B707A",
"]+	c #778D92",
"^+	c #809CA2",
"/+	c #638090",
"(+	c #5A81BA",
"_+	c #4C7E90",
":+	c #47828E",
"<+	c #73A4AB",
"[+	c #619AA9",
"}+	c #627F8D",
"|+	c #506E7E",
"1+	c #626D7E",
"2+	c #536376",
"3+	c #4F5F72",
"4+	c #575E6F",
"5+	c #4F5469",
"6+	c #56626F",
"7+	c #656B7D",
"8+	c #65698C",
"9+	c #5A6397",
"0+	c #5F698E",
"a+	c #43636B",
"b+	c #456167",
"c+	c #485F62",
"d+	c #49615C",
"e+	c #4B6562",
"f+	c #44615E",
"g+	c #5F625B",
"h+	c #6B6461",
"i+	c #696768",
"j+	c #839BA8",
"k+	c #94B7C5",
"l+	c #7785A7",
"m+	c #6F7B88",
"n+	c #64828E",
"o+	c #8199B2",
"p+	c #6C97D0",
"q+	c #57818D",
"r+	c #577986",
"s+	c #59808E",
"t+	c #5D8290",
"u+	c #5E7C8F",
"v+	c #75B4D1",
"w+	c #84A0AE",
"x+	c #495F6C",
"y+	c #5E646C",
"z+	c #5C5F6C",
"A+	c #4B5768",
"B+	c #666A71",
"C+	c #475771",
"D+	c #485687",
"E+	c #515D97",
"F+	c #5D6794",
"G+	c #49676E",
"H+	c #48666A",
"I+	c #4B6466",
"J+	c #496461",
"K+	c #466360",
"L+	c #48635D",
"M+	c #6A645E",
"N+	c #77898D",
"O+	c #767E81",
"P+	c #6B6F70",
"Q+	c #74858F",
"R+	c #6F8188",
"S+	c #6E8790",
"T+	c #6594AB",
"U+	c #6EB2D8",
"V+	c #5BA9D9",
"W+	c #649BC1",
"X+	c #5C91B1",
"Y+	c #6894AC",
"Z+	c #7994A5",
"`+	c #6E8498",
" @	c #5987A3",
".@	c #587082",
"+@	c #516C86",
"@@	c #51697D",
"#@	c #45596E",
"$@	c #506173",
"%@	c #636772",
"&@	c #576180",
"*@	c #4F5E96",
"=@	c #58619D",
"-@	c #5F6892",
";@	c #4A6A6F",
">@	c #4B696C",
",@	c #4B6563",
"'@	c #45635F",
")@	c #486460",
"!@	c #748F92",
"~@	c #869999",
"{@	c #6C6D6E",
"]@	c #69757B",
"^@	c #5F7D87",
"/@	c #568CA8",
"(@	c #4BA6E0",
"_@	c #5AC1F8",
":@	c #5DE1FF",
"<@	c #64EFFF",
"[@	c #5CE9FF",
"}@	c #62E3FF",
"|@	c #68D0F8",
"1@	c #6BA9E0",
"2@	c #577E9B",
"3@	c #4D6780",
"4@	c #4F6175",
"5@	c #576573",
"6@	c #7B9BA9",
"7@	c #758186",
"8@	c #666970",
"9@	c #646775",
"0@	c #5D6589",
"a@	c #5B669E",
"b@	c #5F679F",
"c@	c #526085",
"d@	c #496567",
"e@	c #47686C",
"f@	c #4A6869",
"g@	c #4F655B",
"h@	c #466660",
"i@	c #547370",
"j@	c #89AFB3",
"k@	c #727071",
"l@	c #6E7579",
"m@	c #758395",
"n@	c #5C8ED1",
"o@	c #42A3F3",
"p@	c #3EC1FF",
"q@	c #51DDFF",
"r@	c #5BEFFF",
"s@	c #61FEFF",
"t@	c #66FFFF",
"u@	c #62FFFF",
"v@	c #5BFCFF",
"w@	c #5AEDFF",
"x@	c #5FC1EB",
"y@	c #688BAC",
"z@	c #6B7F8D",
"A@	c #5D6B7C",
"B@	c #536171",
"C@	c #78AAB7",
"D@	c #475A6B",
"E@	c #3D597B",
"F@	c #626A94",
"G@	c #4E669D",
"H@	c #495C95",
"I@	c #576591",
"J@	c #4E635F",
"K@	c #556761",
"L@	c #53665E",
"M@	c #4D645D",
"N@	c #4F635D",
"O@	c #84B1B6",
"P@	c #5C696A",
"Q@	c #6C7072",
"R@	c #748082",
"S@	c #6E92B5",
"T@	c #6FAEF6",
"U@	c #4CC0FF",
"V@	c #41D6FF",
"W@	c #50F6FF",
"X@	c #6FFFFF",
"Y@	c #83FFFF",
"Z@	c #7FFFFF",
"`@	c #65FFFF",
" #	c #51F0FF",
".#	c #4EF6FF",
"+#	c #55FFFF",
"@#	c #61D1F1",
"##	c #5A7E9A",
"$#	c #597680",
"%#	c #6A7478",
"&#	c #6E8288",
"*#	c #82A7BA",
"=#	c #546785",
"-#	c #556898",
";#	c #546A9C",
">#	c #516295",
",#	c #4F6397",
"'#	c #49615B",
")#	c #4C615C",
"!#	c #455E5A",
"~#	c #3E5E5C",
"{#	c #45676A",
"]#	c #78ADB4",
"^#	c #5E6A70",
"/#	c #70738B",
"(#	c #7283AB",
"_#	c #6198F2",
":#	c #53AEFF",
"<#	c #4CC4FF",
"[#	c #44DAFF",
"}#	c #54FDFF",
"|#	c #A6FFFF",
"1#	c #EBFFFF",
"2#	c #DDFFFF",
"3#	c #ACFFFF",
"4#	c #59F6FF",
"5#	c #43D7FF",
"6#	c #41E6FF",
"7#	c #47E8FF",
"8#	c #528BC5",
"9#	c #5E7885",
"0#	c #66727E",
"a#	c #526067",
"b#	c #7CADB5",
"c#	c #4D667D",
"d#	c #506A97",
"e#	c #546695",
"f#	c #546898",
"g#	c #566890",
"h#	c #4C635E",
"i#	c #40605E",
"j#	c #3A5F5D",
"k#	c #3B6465",
"l#	c #558F96",
"m#	c #528891",
"n#	c #676F72",
"o#	c #737982",
"p#	c #78A1D1",
"q#	c #508DFB",
"r#	c #4CAAFF",
"s#	c #42B4FF",
"t#	c #44D8FF",
"u#	c #5DFDFF",
"v#	c #AFFFFF",
"w#	c #FEFFFF",
"x#	c #F7FFFF",
"y#	c #99FFFF",
"z#	c #50EDFF",
"A#	c #3EB8FF",
"B#	c #3FBAFF",
"C#	c #44DFFF",
"D#	c #3A98DB",
"E#	c #427285",
"F#	c #536E76",
"G#	c #54666C",
"H#	c #68ABB3",
"I#	c #396C88",
"J#	c #3F6D9D",
"K#	c #426A9B",
"L#	c #406488",
"M#	c #3F5D63",
"N#	c #425F5D",
"O#	c #416060",
"P#	c #3F5F60",
"Q#	c #3A6469",
"R#	c #538F9F",
"S#	c #4E6D7A",
"T#	c #707580",
"U#	c #727A87",
"V#	c #698DCA",
"W#	c #4986FB",
"X#	c #4594FF",
"Y#	c #3790FD",
"Z#	c #38ACF5",
"`#	c #4ED3FB",
" $	c #92FAFF",
".$	c #FBFFFF",
"+$	c #F3FFFF",
"@$	c #80F8FF",
"#$	c #43C5FD",
"$$	c #3296F9",
"%$	c #349DFF",
"&$	c #40D1FF",
"*$	c #3F99F9",
"=$	c #5274B0",
"-$	c #466E7B",
";$	c #3E6B70",
">$	c #5C9699",
",$	c #3E7393",
"'$	c #3E6995",
")$	c #406485",
"!$	c #3C5E64",
"~$	c #405F63",
"{$	c #436363",
"]$	c #516563",
"^$	c #5C6560",
"/$	c #52676D",
"($	c #436E84",
"_$	c #527590",
":$	c #707B90",
"<$	c #717D8C",
"[$	c #627DAF",
"}$	c #4586F8",
"|$	c #3D89E9",
"1$	c #3271B7",
"2$	c #317AC1",
"3$	c #3F92CF",
"4$	c #67D3F2",
"5$	c #A7F7FE",
"6$	c #ADF9FF",
"7$	c #5ED1F6",
"8$	c #368EDE",
"9$	c #2877DB",
"0$	c #2A8DF8",
"a$	c #2FA4FF",
"b$	c #3187EA",
"c$	c #446FA2",
"d$	c #586F84",
"e$	c #506E76",
"f$	c #4E717F",
"g$	c #406981",
"h$	c #38607C",
"i$	c #3A5E66",
"j$	c #3F5F64",
"k$	c #426064",
"l$	c #545F5E",
"m$	c #5B605C",
"n$	c #626663",
"o$	c #5C696D",
"p$	c #4A6D80",
"q$	c #82ACC8",
"r$	c #82A1BE",
"s$	c #747F91",
"t$	c #687AA0",
"u$	c #5CABDE",
"v$	c #40A0E7",
"w$	c #2C65C5",
"x$	c #2B66C1",
"y$	c #306FB0",
"z$	c #3C7DB2",
"A$	c #54A0E4",
"B$	c #4F9DDA",
"C$	c #3E92D5",
"D$	c #2B71A6",
"E$	c #236FE9",
"F$	c #289EFF",
"G$	c #218EFE",
"H$	c #2A81C3",
"I$	c #367186",
"J$	c #506E7C",
"K$	c #85BED8",
"L$	c #7EB1CE",
"M$	c #59667C",
"N$	c #5E6471",
"O$	c #3D5C61",
"P$	c #3F5E63",
"Q$	c #456369",
"R$	c #5F5E60",
"S$	c #5F5F5F",
"T$	c #6A6966",
"U$	c #696D6F",
"V$	c #606E7E",
"W$	c #8FAFC9",
"X$	c #76849D",
"Y$	c #747C8A",
"Z$	c #737C84",
"`$	c #5B7B9C",
" %	c #7DE1F5",
".%	c #4AB1F0",
"+%	c #2D61CC",
"@%	c #2C598B",
"#%	c #2E62A2",
"$%	c #2F69E6",
"%%	c #2B72BD",
"&%	c #297BDA",
"*%	c #2280E5",
"=%	c #2393F9",
"-%	c #2082F1",
";%	c #2BB5F9",
">%	c #2F6FD1",
",%	c #3875B5",
"'%	c #376992",
")%	c #6BABC3",
"!%	c #6E9EBA",
"~%	c #515F63",
"{%	c #465D60",
"]%	c #3C5C60",
"^%	c #3C5D61",
"/%	c #436269",
"(%	c #656466",
"_%	c #605E5F",
":%	c #6E6D69",
"<%	c #71706F",
"[%	c #6E7176",
"}%	c #7C8891",
"|%	c #6F7C87",
"1%	c #787D7F",
"2%	c #797C7A",
"3%	c #687781",
"4%	c #6D8DB7",
"5%	c #B4EFFA",
"6%	c #99D6F5",
"7%	c #3C87CD",
"8%	c #2A62D0",
"9%	c #2B7DFE",
"0%	c #2591F8",
"a%	c #23ACFE",
"b%	c #24ACFB",
"c%	c #2094F6",
"d%	c #41CEEF",
"e%	c #3280A1",
"f%	c #396B7B",
"g%	c #386871",
"h%	c #34636A",
"i%	c #3F6673",
"j%	c #4B5A5A",
"k%	c #4C5858",
"l%	c #4D5757",
"m%	c #4A5658",
"n%	c #40595E",
"o%	c #646568",
"p%	c #6D6966",
"q%	c #68716B",
"r%	c #58706E",
"s%	c #6C706E",
"t%	c #797979",
"u%	c #9DB4B8",
"v%	c #737876",
"w%	c #757A77",
"x%	c #69767A",
"y%	c #607590",
"z%	c #5478BD",
"A%	c #8CC0DD",
"B%	c #90DCFC",
"C%	c #5CD6FF",
"D%	c #38C6FF",
"E%	c #2DC3FF",
"F%	c #2DB4FE",
"G%	c #41CAF6",
"H%	c #41B8DA",
"I%	c #316C9A",
"J%	c #376973",
"K%	c #396970",
"L%	c #37656B",
"M%	c #35646B",
"N%	c #5292A0",
"O%	c #4C5B5D",
"P%	c #495355",
"Q%	c #525557",
"R%	c #4F5355",
"S%	c #495155",
"T%	c #525860",
"U%	c #5D6D6B",
"V%	c #5E706D",
"W%	c #5C7471",
"X%	c #5C706C",
"Y%	c #77756F",
"Z%	c #7D7571",
"`%	c #929D9E",
" &	c #8DADB1",
".&	c #6D7875",
"+&	c #6A7677",
"@&	c #60797E",
"#&	c #596D78",
"$&	c #496E7B",
"%&	c #3A7DA2",
"&&	c #3B85C9",
"*&	c #4494D0",
"=&	c #4292CD",
"-&	c #408BCC",
";&	c #366D96",
">&	c #3A6C78",
",&	c #3A6777",
"'&	c #396267",
")&	c #375F64",
"!&	c #365F64",
"~&	c #65A9B3",
"{&	c #3F6F75",
"]&	c #375A5F",
"^&	c #445457",
"/&	c #4E5256",
"(&	c #4D4F53",
"_&	c #424F52",
":&	c #3B4E50",
"<&	c #66676B",
"[&	c #4B7170",
"}&	c #557673",
"|&	c #65736B",
"1&	c #827A73",
"2&	c #827972",
"3&	c #97A3A2",
"4&	c #A5B7B9",
"5&	c #5E726E",
"6&	c #5A726F",
"7&	c #537271",
"8&	c #517277",
"9&	c #50717D",
"0&	c #467498",
"a&	c #5781AF",
"b&	c #487998",
"c&	c #427084",
"d&	c #416976",
"e&	c #42676A",
"f&	c #406266",
"g&	c #3F5C60",
"h&	c #426167",
"i&	c #78B3BB",
"j&	c #557E81",
"k&	c #385559",
"l&	c #345259",
"m&	c #365158",
"n&	c #484F53",
"o&	c #3E4F51",
"p&	c #325455",
"q&	c #365052",
"r&	c #656769",
"s&	c #517676",
"t&	c #5E7774",
"u&	c #767871",
"v&	c #827C73",
"w&	c #827B72",
"x&	c #807A72",
"y&	c #807970",
"z&	c #8B8F8C",
"A&	c #A9BEC0",
"B&	c #859B9A",
"C&	c #63706C",
"D&	c #566D6C",
"E&	c #4F6C70",
"F&	c #4D7E95",
"G&	c #64A2C9",
"H&	c #5D96CA",
"I&	c #4A6E7E",
"J&	c #445C5E",
"K&	c #475A5C",
"L&	c #729EA4",
"M&	c #7FB0B7",
"N&	c #496266",
"O&	c #4F555B",
"P&	c #635B67",
"Q&	c #52535E",
"R&	c #595564",
"S&	c #5A4D5A",
"T&	c #454C53",
"U&	c #365357",
"V&	c #315156",
"W&	c #656969",
"X&	c #577674",
"Y&	c #627E79",
"Z&	c #7F7B72",
"`&	c #817A70",
" *	c #817A72",
".*	c #7C7369",
"+*	c #7B7A78",
"@*	c #6B6863",
"#*	c #7A736A",
"$*	c #879593",
"%*	c #94AAAD",
"&*	c #7F969B",
"**	c #6B7880",
"=*	c #5E778A",
"-*	c #94DEED",
";*	c #76AEC9",
">*	c #476377",
",*	c #608F9B",
"'*	c #6E9EA4",
")*	c #7DACB1",
"!*	c #5F7577",
"~*	c #4F5455",
"{*	c #475053",
"]*	c #494E55",
"^*	c #55515B",
"/*	c #5E5260",
"(*	c #635668",
"_*	c #564A58",
":*	c #665564",
"<*	c #3D4E56",
"[*	c #3A5156",
"}*	c #607571",
"|*	c #5E7C78",
"1*	c #5D7C76",
"2*	c #73756C",
"3*	c #7F776D",
"4*	c #7D756C",
"5*	c #76736C",
"6*	c #787871",
"7*	c #7A7668",
"8*	c #767469",
"9*	c #716D66",
"0*	c #6B6A63",
"a*	c #616762",
"b*	c #4C6769",
"c*	c #436A77",
"d*	c #5D92AD",
"e*	c #49627C",
"f*	c #4B5A6B",
"g*	c #49555C",
"h*	c #535B59",
"i*	c #486770",
"j*	c #3D728C",
"k*	c #557CA3",
"l*	c #3C4850",
"m*	c #3A444C",
"n*	c #4D4E57",
"o*	c #4D4D56",
"p*	c #534F5B",
"q*	c #654D5B",
"r*	c #755D6D",
"s*	c #605762",
"t*	c #557D77",
"u*	c #4E7B77",
"v*	c #5C726E",
"w*	c #7B736A",
"x*	c #79756A",
"y*	c #72766B",
"z*	c #677269",
"A*	c #5F6D68",
"B*	c #576763",
"C*	c #4F6764",
"D*	c #456664",
"E*	c #446769",
"F*	c #4A606C",
"G*	c #505D69",
"H*	c #4C545E",
"I*	c #4B5358",
"J*	c #454F52",
"K*	c #3F494E",
"L*	c #4A779D",
"M*	c #3D617B",
"N*	c #4A525C",
"O*	c #59606B",
"P*	c #5E6375",
"Q*	c #57526C",
"R*	c #4D4951",
"S*	c #53464D",
"T*	c #6D575F",
"U*	c #6E5E67",
"V*	c #5C595E",
"W*	c #66736E",
"X*	c #62756E",
"Y*	c #607570",
"Z*	c #63736F",
"`*	c #5E7370",
" =	c #567070",
".=	c #526D6B",
"+=	c #4E6F6D",
"@=	c #516D6B",
"#=	c #5E776E",
"$=	c #476D6C",
"%=	c #436A69",
"&=	c #456B6A",
"*=	c #456767",
"==	c #3D5E5F",
"-=	c #44585F",
";=	c #4A535A",
">=	c #4A5256",
",=	c #465053",
"'=	c #3B474E",
")=	c #263940",
"!=	c #233C4D",
"~=	c #4E5C6A",
"{=	c #6A717E",
"]=	c #6C7585",
"^=	c #707988",
"/=	c #626978",
"(=	c #4E4B50",
"_=	c #4F4044",
":=	c #6E565A",
"<=	c #605452",
"[=	c #6E5D61",
"  . + @ # $ % & * = - ; > , ' ) ! ~ { ] ^ / ( _ : < [ } | 1 2 3 ",
"4 5 6 7 8 9 0 a b c d e f g h i j k l m n o p q r s t u v w x y ",
"z A B C D E F G H I J K L M N O P Q R S T U V W X Y Z `  ...+.@.",
"#.$.%.&.*.=.-.;.>.,.'.).!.~.{.].^./.(._.:.<.[.}.}.|.1.2.3.4.5.6.",
"7.8.9.0.a.b.c.d.e.f.g.h.i.j.k.l.m.n.o.p.q.r.s.t.u.v.w.x.y.z.A.B.",
"C.D.E.F.G.H.I.J.K.L.M.N.O.P.Q.R.S.T.U.V.W.X.Y.Z.`. +.+++@+#+$+%+",
"&+*+=+-+;+>+,+'+)+!+~+{+]+^+/+(+_+:+<+[+}+|+1+2+3+4+5+6+7+8+9+0+",
"a+b+c+d+e+f+g+h+i+j+k+l+m+n+o+p+q+r+s+t+u+v+w+x+y+z+A+B+C+D+E+F+",
"G+H+I+J+K+L+M+N+O+P+Q+R+S+T+U+V+W+X+Y+Z+`+ @.@+@@@#@$@%@&@*@=@-@",
"S ;@>@,@'@)@!@~@{@]@^@/@(@_@:@<@[@}@|@1@2@3@4@5@6@7@8@9@0@a@b@c@",
"d@e@f@g@h@i@j@k@l@m@n@o@p@q@r@s@t@u@v@w@x@y@z@A@B@C@D@E@F@G@H@I@",
"J@K@L@M@N@O@P@Q@R@S@T@U@V@W@X@Y@Z@`@ #.#+#@###$#%#&#*#=#-#;#>#,#",
"'#)#!#~#{#]#^#/#(#_#:#<#[#}#|#1#2#3#4#5#6#7#8#9#0#a#b#c#d#e#f#g#",
"h#i#j#k#l#m#n#o#p#q#r#s#t#u#v#w#x#y#z#A#B#C#D#E#F#G#H#I#J#K#L#M#",
"N#O#P#Q#R#S#T#U#V#W#X#Y#Z#`# $.$+$@$#$$$%$&$*$=$-$;$>$,$'$)$!$~$",
"{$]$^$/$($_$:$<$[$}$|$1$2$3$4$5$6$7$8$9$0$a$b$c$d$e$f$g$h$i$j$k$",
"l$m$n$o$p$q$r$s$t$u$v$w$x$y$z$A$B$C$D$E$F$G$H$I$J$K$L$M$N$O$P$Q$",
"R$S$T$U$V$W$X$Y$Z$`$ %.%+%@%#%$%%%&%*%=%-%;%>%,%'%)%!%~%{%]%^%/%",
"(%_%:%<%[%}%|%1%2%3%4%5%6%7%8%9%0%a%b%c%d%e%f%g%h%i%j%k%l%m%n%>.",
"o%p%q%r%s%t%u%v%w%x%y%z%A%B%C%D%E%F%G%H%I%J%K%L%M%N%O%P%Q%R%S%T%",
"U%V%W%X%Y%Z%`% &.&+&@&#&$&%&&&*&=&-&;&>&,&'&)&!&~&{&]&^&/&(&_&:&",
"<&[&}&|&1&2&2&3&4&5&6&7&8&9&0&a&b&c&d&e&f&g&h&i&j&k&l&m&n&o&p&q&",
"r&s&t&u&v&w&x&y&z&A&B&C&D&E&F&G&H&I&/%J&K&L&M&N&O&P&Q&R&S&T&U&V&",
"W&X&Y&Z&`& *.*+*@*#*$*%*&***=*-*;*>*,*'*)*!*~*{*]*^*/*(*_*:*<*[*",
"}*|*1*2*3*4*5*6*7*8*9*0*a*b*c*d*e*f*g*h*i*j*k*l*m*n*o*p*q*r*s*O&",
"}*t*u*v*w*#*x*y*z*A*B*C*D*E*/ F*G*H*I*J*K*L*M*N*O*P*Q*R*S*T*U*V*",
"W*X*Y*Z*`* =.=+=@=#=$=%=&=*===-=;=>=,='=)=!=~={=]=^=/=(=_=:=<=[="};
