/* XPM */
static char * wall_xpm[] = {
"25 32 787 2",
"  	c #696D73",
". 	c #696C71",
"+ 	c #4F5B69",
"@ 	c #495765",
"# 	c #445462",
"$ 	c #3F5565",
"% 	c #52646F",
"& 	c #656A6E",
"* 	c #64676C",
"= 	c #4D5A5B",
"- 	c #5D6463",
"; 	c #5B6A70",
"> 	c #5A6569",
", 	c #5D6B71",
"' 	c #656A6F",
") 	c #61666B",
"! 	c #536667",
"~ 	c #476A6B",
"{ 	c #526562",
"] 	c #6E6C65",
"^ 	c #6E6C66",
"/ 	c #726D66",
"( 	c #746E68",
"_ 	c #746E67",
": 	c #736C65",
"< 	c #6A7075",
"[ 	c #565E67",
"} 	c #4D5A67",
"| 	c #435560",
"1 	c #38575B",
"2 	c #4B6069",
"3 	c #656B6F",
"4 	c #65686F",
"5 	c #575D62",
"6 	c #545C5F",
"7 	c #626B70",
"8 	c #59666B",
"9 	c #5B686F",
"0 	c #5D6871",
"a 	c #536266",
"b 	c #46676A",
"c 	c #416B6F",
"d 	c #436466",
"e 	c #5F6662",
"f 	c #726E66",
"g 	c #6C6B64",
"h 	c #6C6C65",
"i 	c #716E66",
"j 	c #736F66",
"k 	c #726C65",
"l 	c #555B66",
"m 	c #505463",
"n 	c #4F5061",
"o 	c #5D6169",
"p 	c #686B70",
"q 	c #676B6F",
"r 	c #676A6D",
"s 	c #5E6267",
"t 	c #616872",
"u 	c #5E636A",
"v 	c #5E6367",
"w 	c #5B676B",
"x 	c #5B696F",
"y 	c #4F6163",
"z 	c #456E70",
"A 	c #416D70",
"B 	c #436F72",
"C 	c #4E605F",
"D 	c #626863",
"E 	c #736E66",
"F 	c #757A79",
"G 	c #696B66",
"H 	c #757067",
"I 	c #736B65",
"J 	c #6E6D75",
"K 	c #585966",
"L 	c #495363",
"M 	c #676B6E",
"N 	c #626568",
"O 	c #4A5966",
"P 	c #455666",
"Q 	c #4A5564",
"R 	c #4F5965",
"S 	c #5A626B",
"T 	c #616973",
"U 	c #61676F",
"V 	c #555D62",
"W 	c #4B6F6F",
"X 	c #4D7876",
"Y 	c #547875",
"Z 	c #406E71",
"` 	c #496869",
" .	c #51696B",
"..	c #657179",
"+.	c #A1E7F2",
"@.	c #748E91",
"#.	c #5D6A67",
"$.	c #656B67",
"%.	c #716C66",
"&.	c #41505F",
"*.	c #374F61",
"=.	c #3D5466",
"-.	c #5B656C",
";.	c #64686A",
">.	c #405262",
",.	c #3E5061",
"'.	c #495161",
").	c #4D5361",
"!.	c #535863",
"~.	c #5C6167",
"{.	c #5E656C",
"].	c #5F656C",
"^.	c #4E6A6C",
"/.	c #447374",
"(.	c #3F6E70",
"_.	c #446B6C",
":.	c #4F6B69",
"<.	c #4A6F70",
"[.	c #7EC1DF",
"}.	c #B3FBFF",
"|.	c #94E3F1",
"1.	c #6B7C80",
"2.	c #656763",
"3.	c #686865",
"4.	c #485867",
"5.	c #52616B",
"6.	c #59656E",
"7.	c #61676C",
"8.	c #66686B",
"9.	c #616468",
"0.	c #545E64",
"a.	c #545B63",
"b.	c #5C6066",
"c.	c #5E6469",
"d.	c #5F646B",
"e.	c #596267",
"f.	c #536462",
"g.	c #506D6B",
"h.	c #4F7276",
"i.	c #486B6B",
"j.	c #456869",
"k.	c #43696B",
"l.	c #6AA5C1",
"m.	c #96E3FF",
"n.	c #AFFCFF",
"o.	c #91E7FF",
"p.	c #6E8C96",
"q.	c #596260",
"r.	c #5B6461",
"s.	c #686C6E",
"t.	c #6A6C71",
"u.	c #616368",
"v.	c #66686C",
"w.	c #646668",
"x.	c #5E6264",
"y.	c #606567",
"z.	c #626769",
"A.	c #5C6166",
"B.	c #576065",
"C.	c #45585A",
"D.	c #666B6C",
"E.	c #506664",
"F.	c #4E6968",
"G.	c #486A6C",
"H.	c #4F6A6E",
"I.	c #4D6363",
"J.	c #5D6D71",
"K.	c #7EC7F9",
"L.	c #9EF1FF",
"M.	c #A7FEFF",
"N.	c #8BDDFF",
"O.	c #6B7D87",
"P.	c #626462",
"Q.	c #5C6561",
"R.	c #60656B",
"S.	c #5A5F66",
"T.	c #586068",
"U.	c #515D68",
"V.	c #5C6268",
"W.	c #616467",
"X.	c #4A5863",
"Y.	c #4C5964",
"Z.	c #5B626C",
"`.	c #60686F",
" +	c #5B666B",
".+	c #475C5F",
"++	c #416568",
"@+	c #4E6967",
"#+	c #526765",
"$+	c #78A9B3",
"%+	c #8ACAD5",
"&+	c #709DCA",
"*+	c #7BC5FF",
"=+	c #A0F4FF",
"-+	c #97E3FF",
";+	c #7EC9FD",
">+	c #666764",
",+	c #696663",
"'+	c #5B615D",
")+	c #4A5162",
"!+	c #495867",
"~+	c #465B6A",
"{+	c #3C5A62",
"]+	c #465B5D",
"^+	c #64676B",
"/+	c #5A6668",
"(+	c #4F5E66",
"_+	c #455968",
":+	c #4A5D67",
"<+	c #576468",
"[+	c #5C666E",
"}+	c #516266",
"|+	c #496566",
"1+	c #5D6460",
"2+	c #87CFE9",
"3+	c #8FE3FE",
"4+	c #70AEF9",
"5+	c #84D3FF",
"6+	c #ACF1FF",
"7+	c #88CCFC",
"8+	c #72AEEC",
"9+	c #636663",
"0+	c #666663",
"a+	c #595F5B",
"b+	c #636767",
"c+	c #616869",
"d+	c #5B666A",
"e+	c #556368",
"f+	c #506065",
"g+	c #58626A",
"h+	c #56646A",
"i+	c #4F666A",
"j+	c #485B65",
"k+	c #455B67",
"l+	c #455C66",
"m+	c #545F65",
"n+	c #5C646A",
"o+	c #656463",
"p+	c #8196A2",
"q+	c #87D8FF",
"r+	c #90D6FF",
"s+	c #8AC6FB",
"t+	c #8FDDFF",
"u+	c #A3EEFF",
"v+	c #71A6E3",
"w+	c #6894CD",
"x+	c #646662",
"y+	c #666562",
"z+	c #5C615D",
"A+	c #565F62",
"B+	c #586265",
"C+	c #58666A",
"D+	c #57656A",
"E+	c #5B656A",
"F+	c #56646C",
"G+	c #58646E",
"H+	c #5C6671",
"I+	c #5C6771",
"J+	c #5E6973",
"K+	c #606973",
"L+	c #57656D",
"M+	c #5A6167",
"N+	c #5D5F62",
"O+	c #87C1D6",
"P+	c #A1EFFF",
"Q+	c #B7F9FF",
"R+	c #7EC1FE",
"S+	c #83CDFF",
"T+	c #7FC5FC",
"U+	c #678DC7",
"V+	c #617EAD",
"W+	c #636462",
"X+	c #5F6361",
"Y+	c #535C5C",
"Z+	c #555B62",
"`+	c #47595A",
" @	c #4C6363",
".@	c #455F61",
"+@	c #4A6061",
"@@	c #4A6265",
"#@	c #4F6064",
"$@	c #506165",
"%@	c #526267",
"&@	c #526569",
"*@	c #4E6266",
"=@	c #496166",
"-@	c #4C6368",
";@	c #82BEE6",
">@	c #82CAFF",
",@	c #8EDCFF",
"'@	c #85D0FF",
")@	c #619CFB",
"!@	c #70B0FF",
"~@	c #6798E8",
"{@	c #7FACD9",
"]@	c #A4D1DF",
"^@	c #63717A",
"/@	c #575E5E",
"(@	c #4A585A",
"_@	c #5B6066",
":@	c #3D676A",
"<@	c #39666A",
"[@	c #3A6569",
"}@	c #446668",
"|@	c #466567",
"1@	c #486568",
"2@	c #426266",
"3@	c #3E5F63",
"4@	c #405B5F",
"5@	c #5D8085",
"6@	c #A1DFE2",
"7@	c #71B3FF",
"8@	c #72B6FF",
"9@	c #7ABFFF",
"0@	c #67AAFF",
"a@	c #5991F3",
"b@	c #5C91ED",
"c@	c #89D1FA",
"d@	c #ABF3FF",
"e@	c #90D1E9",
"f@	c #596062",
"g@	c #4D5D5F",
"h@	c #4B5C5E",
"i@	c #456062",
"j@	c #456365",
"k@	c #3D676B",
"l@	c #38666B",
"m@	c #366469",
"n@	c #396468",
"o@	c #396569",
"p@	c #406368",
"q@	c #3B5D60",
"r@	c #3D5D60",
"s@	c #4F6B79",
"t@	c #A5EDFA",
"u@	c #9EEDFF",
"v@	c #5D99FB",
"w@	c #62A0FF",
"x@	c #61A2FE",
"y@	c #5D9BFE",
"z@	c #649BF0",
"A@	c #6399E6",
"B@	c #7CC1FB",
"C@	c #77BCFE",
"D@	c #6B98D8",
"E@	c #656B7A",
"F@	c #515D5F",
"G@	c #4A5F61",
"H@	c #3C6365",
"I@	c #406161",
"J@	c #3C6668",
"K@	c #3A666A",
"L@	c #376065",
"M@	c #3A6268",
"N@	c #456369",
"O@	c #486C70",
"P@	c #3B5E63",
"Q@	c #406166",
"R@	c #73B5D0",
"S@	c #A7F8FF",
"T@	c #83D1FF",
"U@	c #5D96F6",
"V@	c #5F9BFD",
"W@	c #69A9FD",
"X@	c #A3F1FF",
"Y@	c #95D8FF",
"Z@	c #5A8DD1",
"`@	c #5B8EE1",
" #	c #6389D8",
".#	c #687AAD",
"+#	c #626472",
"@#	c #625E5D",
"##	c #666263",
"$#	c #476A6C",
"%#	c #3F6162",
"&#	c #3A6364",
"*#	c #3F686A",
"=#	c #396165",
"-#	c #395F64",
";#	c #3F6872",
">#	c #ABE8F0",
",#	c #60949E",
"'#	c #5E83A0",
")#	c #97E6FB",
"!#	c #9BEDFF",
"~#	c #8CCEF9",
"{#	c #5081DE",
"]#	c #548AEF",
"^#	c #6AABFD",
"/#	c #95DFFF",
"(#	c #7EC1FC",
"_#	c #4468B2",
":#	c #4C6AA9",
"<#	c #697096",
"[#	c #6E6F84",
"}#	c #686369",
"|#	c #645C60",
"1#	c #5C5557",
"2#	c #57646D",
"3#	c #576469",
"4#	c #496366",
"5#	c #395D63",
"6#	c #3C646E",
"7#	c #86CBE5",
"8#	c #C2FFFF",
"9#	c #A1F2FA",
"0#	c #BCF1F4",
"a#	c #91E4FF",
"b#	c #8FDFFF",
"c#	c #85CCF7",
"d#	c #8ACDEB",
"e#	c #78ACE3",
"f#	c #71B1F6",
"g#	c #71B0F8",
"h#	c #4B73A8",
"i#	c #4E6783",
"j#	c #616373",
"k#	c #575659",
"l#	c #595659",
"m#	c #5D595C",
"n#	c #5D575B",
"o#	c #5B686D",
"p#	c #55636D",
"q#	c #53626B",
"r#	c #59626B",
"s#	c #6F6876",
"t#	c #79B0D5",
"u#	c #A0EBFF",
"v#	c #A5EEFF",
"w#	c #9EE8FF",
"x#	c #85D4FF",
"y#	c #6EB1FF",
"z#	c #77BCFF",
"A#	c #7EC6FF",
"B#	c #78BBF4",
"C#	c #73B5FC",
"D#	c #7BBFF9",
"E#	c #5D86C4",
"F#	c #386485",
"G#	c #39575E",
"H#	c #4C565A",
"I#	c #57585A",
"J#	c #575457",
"K#	c #5C565A",
"L#	c #426163",
"M#	c #4E5D60",
"N#	c #546067",
"O#	c #525E65",
"P#	c #5A768C",
"Q#	c #93E4FF",
"R#	c #8BD7FF",
"S#	c #84D0FF",
"T#	c #7DC9FF",
"U#	c #6EB2FF",
"V#	c #619EFE",
"W#	c #63A1FF",
"X#	c #5A93ED",
"Y#	c #558CE7",
"Z#	c #5086DE",
"`#	c #4E81C6",
" $	c #45709F",
".$	c #316377",
"+$	c #3F5E6A",
"@$	c #555D68",
"#$	c #525357",
"$$	c #5A545A",
"%$	c #5D5459",
"&$	c #62565D",
"*$	c #3E5D5F",
"=$	c #475857",
"-$	c #4F5A59",
";$	c #4F5C59",
">$	c #66A1DE",
",$	c #80CDFF",
"'$	c #86D4FF",
")$	c #80CBFF",
"!$	c #6FB8FF",
"~$	c #70B8FF",
"{$	c #5F9CFA",
"]$	c #5E9AF8",
"^$	c #588FF0",
"/$	c #4E7FDB",
"($	c #4A7DD8",
"_$	c #4775C3",
":$	c #356396",
"<$	c #31658B",
"[$	c #245966",
"}$	c #27545E",
"|$	c #35525A",
"1$	c #415158",
"2$	c #58555E",
"3$	c #4B5057",
"4$	c #655A66",
"5$	c #3D5D61",
"6$	c #445758",
"7$	c #4F5B5B",
"8$	c #557192",
"9$	c #6FB6FA",
"0$	c #82D0FF",
"a$	c #99E3FF",
"b$	c #76BBFF",
"c$	c #66A9FF",
"d$	c #63A5F9",
"e$	c #4979D0",
"f$	c #4979D5",
"g$	c #4875C9",
"h$	c #4E7DC2",
"i$	c #4576B8",
"j$	c #326187",
"k$	c #355F77",
"l$	c #205463",
"m$	c #1E5460",
"n$	c #1F525C",
"o$	c #26525C",
"p$	c #495763",
"q$	c #51505D",
"r$	c #51505B",
"s$	c #504F58",
"t$	c #396064",
"u$	c #4A5B5C",
"v$	c #4A5B63",
"w$	c #5C8ED2",
"x$	c #6EB5FF",
"y$	c #79C1FF",
"z$	c #B1F7FF",
"A$	c #71B4FF",
"B$	c #64A5FE",
"C$	c #568EDF",
"D$	c #3C5DA3",
"E$	c #4663A9",
"F$	c #46689E",
"G$	c #406D8E",
"H$	c #346380",
"I$	c #26566D",
"J$	c #20525D",
"K$	c #1D525C",
"L$	c #20515B",
"M$	c #234F59",
"N$	c #525766",
"O$	c #565460",
"P$	c #4C4A55",
"Q$	c #46424A",
"R$	c #426067",
"S$	c #6A95BF",
"T$	c #85CCFD",
"U$	c #609EFC",
"V$	c #68A7FC",
"W$	c #73B6FF",
"X$	c #6DAEFC",
"Y$	c #5B95FA",
"Z$	c #5383C9",
"`$	c #405079",
" %	c #4E5E8D",
".%	c #4D6789",
"+%	c #467090",
"@%	c #365C70",
"#%	c #274C57",
"$%	c #214D57",
"%%	c #214F59",
"&%	c #29515A",
"*%	c #3D515C",
"=%	c #47515F",
"-%	c #535564",
";%	c #4E4C58",
">%	c #47414A",
",%	c #564C54",
"'%	c #355C60",
")%	c #47749E",
"!%	c #67A4E9",
"~%	c #A5E9FF",
"{%	c #94D4F5",
"]%	c #8DB9E9",
"^%	c #588CE6",
"/%	c #5388EC",
"(%	c #5788E2",
"_%	c #5681D0",
":%	c #4A5D7F",
"<%	c #475572",
"[%	c #4C627C",
"}%	c #485A6E",
"|%	c #3E4950",
"1%	c #314953",
"2%	c #334B54",
"3%	c #364B55",
"4%	c #4C5562",
"5%	c #4F5262",
"6%	c #484D5D",
"7%	c #424753",
"8%	c #424047",
"9%	c #524950",
"0%	c #4F464D",
"a%	c #385A64",
"b%	c #4470AC",
"c%	c #74B5F7",
"d%	c #97E4FF",
"e%	c #90D7FF",
"f%	c #B9F6FE",
"g%	c #70ADE6",
"h%	c #4574D2",
"i%	c #4B79CB",
"j%	c #4571B8",
"k%	c #485B7F",
"l%	c #555668",
"m%	c #3C444D",
"n%	c #43464F",
"o%	c #3C474F",
"p%	c #3A4C55",
"q%	c #4A535E",
"r%	c #515463",
"s%	c #525164",
"t%	c #4B4D61",
"u%	c #38404F",
"v%	c #2E3944",
"w%	c #3C3E44",
"x%	c #413C42",
"y%	c #48414A",
"z%	c #445C79",
"A%	c #456FBA",
"B%	c #5B91E4",
"C%	c #77BBFE",
"D%	c #87CEFF",
"E%	c #83C9FC",
"F%	c #5387DB",
"G%	c #3E68B6",
"H%	c #3E67B3",
"I%	c #3D62A8",
"J%	c #3D5166",
"K%	c #525B66",
"L%	c #385159",
"M%	c #364A52",
"N%	c #3F484F",
"O%	c #4F555E",
"P%	c #595869",
"Q%	c #555365",
"R%	c #48485F",
"S%	c #303846",
"T%	c #253A46",
"U%	c #2B3B44",
"V%	c #42424B",
"W%	c #504A55",
"X%	c #4C4853",
"Y%	c #645C73",
"Z%	c #4E629D",
"`%	c #5782DA",
" &	c #699FF0",
".&	c #659EEA",
"+&	c #456FC2",
"@&	c #3D62AE",
"#&	c #3F65B1",
"$&	c #3A63AA",
"%&	c #2C515A",
"&&	c #2B4F55",
"*&	c #2A5159",
"=&	c #2B5058",
"-&	c #334D55",
";&	c #424452",
">&	c #4A4A58",
",&	c #47495B",
"'&	c #293643",
")&	c #1F3946",
"!&	c #233942",
"~&	c #40434D",
"{&	c #544C5A",
"]&	c #554C5B",
"^&	c #4C4551",
"/&	c #5B5360",
"(&	c #595B81",
"_&	c #5B78C6",
":&	c #5E81D0",
"<&	c #577CCA",
"[&	c #536FB1",
"}&	c #5B6CB1",
"|&	c #476094",
"1&	c #466286",
"2&	c #3B5667",
"3&	c #545B66",
"4&	c #4C5A62",
"5&	c #2F5158",
"6&	c #45515E",
"7&	c #544D63",
"8&	c #414053",
"9&	c #293947",
"0&	c #1E3945",
"a&	c #1F343E",
"b&	c #454451",
"c&	c #524C5A",
"d&	c #534C59",
"e&	c #574C57",
"f&	c #5B4852",
"g&	c #4F4F57",
"h&	c #58577A",
"i&	c #51649D",
"j&	c #546191",
"k&	c #626797",
"l&	c #606081",
"m&	c #585C7A",
"n&	c #454F5D",
"o&	c #3D4C53",
"p&	c #3D5155",
"q&	c #495659",
"r&	c #3F5558",
"s&	c #3B5558",
"t&	c #595F66",
"u&	c #594E66",
"v&	c #544B62",
"w&	c #313A45",
"x&	c #233A44",
"y&	c #213940",
"z&	c #373F49",
"A&	c #564E5F",
"B&	c #574F61",
"C&	c #534A57",
"D&	c #52434C",
"E&	c #634D56",
"F&	c #535158",
"G&	c #4A4C5A",
"H&	c #4C567B",
"I&	c #535779",
"J&	c #5D4F6B",
"K&	c #6E5767",
"L&	c #7B5F71",
"M&	c #665965",
"N&	c #5C5960",
"O&	c #4D555A",
"P&	c #615D62",
"Q&	c #425558",
"R&	c #5D5E65",
"S&	c #675869",
"T&	c #594D62",
"U&	c #494354",
"V&	c #283A42",
"W&	c #263A42",
"X&	c #2C3D44",
"Y&	c #514B59",
"Z&	c #524D5C",
"`&	c #4B4654",
" *	c #493F4A",
".*	c #5E4A53",
"+*	c #624E56",
"@*	c #545367",
"#*	c #494A5C",
"$*	c #424752",
"%*	c #524C54",
"&*	c #51464E",
"**	c #6C5660",
"=*	c #7A5E6B",
"-*	c #72616B",
";*	c #5D5861",
">*	c #58585D",
",*	c #52565B",
"'*	c #55585B",
")*	c #524E58",
"!*	c #534659",
"~*	c #55495A",
"{*	c #343A43",
"]*	c #293C42",
"^*	c #2A3D43",
"/*	c #424650",
"(*	c #474351",
"_*	c #463E48",
":*	c #634D57",
"<*	c #5E4C54",
"[*	c #5D4C54",
"}*	c #6A7183",
"|*	c #535568",
"1*	c #3E434C",
"2*	c #5A4B4F",
"3*	c #55454B",
"4*	c #504A4C",
"5*	c #665355",
"6*	c #6B5B60",
"7*	c #6C5E64",
"8*	c #615960",
"9*	c #5B575C",
"0*	c #545458",
"a*	c #4A5052",
"b*	c #3A3F45",
"c*	c #353942",
"d*	c #2D3B42",
"e*	c #2C3C40",
"f*	c #354046",
"g*	c #514B56",
"h*	c #4D4755",
"i*	c #333842",
"j*	c #59474E",
"k*	c #5C4951",
"l*	c #5D4A53",
"  . + @ # $ % & * = - ; > , ' ) ! ~ { ] ^ / ( _ : ",
"< [ } | 1 2 3 4 5 6 7 8 9 0 a b c d e f g h i j k ",
"l m n o p q r s t u v w x y z A B C D E F G ] H I ",
"J K L M N O P Q R S T U V W X Y Z `  ...+.@.#.$.%.",
"&.*.=.-.;.>.,.'.).!.~.{.].^./.(._.:.<.[.}.|.1.2.3.",
"4.5.6.7.8.9.0.a.b.c.d.e.f.g.h.i.j.k.l.m.n.o.p.q.r.",
"s.t.u.v.w.x.y.z.A.B.C.D.E.F.G.H.I.J.K.L.M.N.O.P.Q.",
"R.S.T.U.V.W.X.Y.Z.`. +.+++@+#+$+%+&+*+=+-+;+>+,+'+",
")+!+~+{+]+^+/+(+_+:+<+[+}+|+1+2+3+4+5+6+7+8+9+0+a+",
"b+c+d+e+f+g+h+i+j+k+l+m+n+o+p+q+r+s+t+u+v+w+x+y+z+",
"A+B+C+D+E+F+G+H+I+J+K+L+M+N+O+P+Q+R+S+T+U+V+W+X+Y+",
"Z+`+ @.@+@@@#@$@%@&@*@=@-@;@>@,@'@)@!@~@{@]@^@/@(@",
"_@.@:@<@[@}@|@1@2@3@4@5@6@7@8@9@0@a@b@c@d@e@f@g@h@",
"i@j@k@l@m@n@o@p@q@r@s@t@u@v@w@x@y@z@A@B@C@D@E@F@G@",
"H@I@J@K@L@M@N@O@P@Q@R@S@T@U@V@W@X@Y@Z@`@ #.#+#@###",
"$#%#&#*#=#-#;#>#,#'#)#!#~#{#]#^#/#(#_#:#<#[#}#|#1#",
"G+2#3#4#5#6#7#8#9#0#a#b#c#d#e#f#-+g#h#i#j#k#l#m#n#",
"o#p#q#r#s#t#u#v#P+w#x#y#z#A#B#C#D#E#F#G#H#I#l#J#K#",
"L#M#N#O#P#;+Q#R#S#T#U#V#W#X#Y#Z#`# $.$+$@$#$$$%$&$",
"*$=$-$;$>$,$'$)$!$~${$]$^$/$($_$:$<$[$}$|$1$2$3$4$",
"5$6$7$8$9$0$a$b$c$d$e$f$g$h$i$j$k$l$m$n$o$p$q$r$s$",
"t$u$v$w$x$y$z$A$B$C$D$E$F$G$H$I$J$K$L$M$j+N$O$P$Q$",
"L@R$S$T$U$V$W$X$Y$Z$`$ %.%+%@%#%$%%%&%*%=%-%;%>%,%",
"'%)%!%~%{%]%^%/%(%_%:%<%[%}%|%1%2%3%4%5%6%7%8%9%0%",
"a%b%c%d%e%f%g%h%i%j%k%l%m%n%o%p%q%r%s%t%u%v%w%x%y%",
"z%A%B%C%D%E%F%G%H%I%J%K%L%M%N%O%P%Q%R%S%T%U%V%W%X%",
"Y%Z%`% &4+.&+&@&#&$&%&&&*&=&-&;&>&,&'&)&!&~&{&]&^&",
"/&(&_&:&<&[&}&|&1&2&3&4&5&=&6&7&8&9&0&a&b&c&d&e&f&",
"g&h&i&j&k&l&m&n&o&p&q&r&s&t&u&v&w&x&y&z&A&B&C&D&E&",
"F&G&H&I&J&K&L&M&N&O&P&Q&R&S&T&U&V&W&X&Y&Z&`& *.*+*",
"@*#*$*%*&***=*-*;*>*,*'*)*!*~*{*]*^*/*{&(*_*:*<*[*",
"}*|*1*2*3*4*5*6*7*8*9*0*a*b*c*d*e*f*g*h*i*f&j*k*l*"};
